<svg xmlns="http://www.w3.org/2000/svg" version="1.1" xmlns:xlink="http://www.w3.org/1999/xlink" width="512" height="512" x="0" y="0" viewBox="0 0 512 512" style="enable-background:new 0 0 512 512" xml:space="preserve" class=""><g><path fill-rule="evenodd" d="M108.3 120.7c16.2 0 30.8 6.6 41.4 17.1 10.6 10.6 17.1 25.2 17.1 41.4s-6.6 30.8-17.1 41.4c-10.6 10.6-25.2 17.1-41.4 17.1s-30.8-6.6-41.4-17.1c-10.6-10.6-17.1-25.2-17.1-41.4s6.6-30.8 17.1-41.4c10.6-10.6 25.2-17.1 41.4-17.1zm111.9 131.4h71.6c12 0 23.4 2.3 34 6.5 5.7-4.5 12.1-8.2 18.9-11 9.1-3.7 19-5.7 29.4-5.7h59.4c21.6 0 41.3 8.8 55.5 23.1 14.2 14.2 23.1 33.9 23.1 55.5v28.2c0 6.9-2.8 13.1-7.3 17.6s-10.8 7.3-17.6 7.3H384v4.7c0 7.6-3.1 14.5-8.1 19.5s-11.9 8.1-19.5 8.1H155.6c-7.6 0-14.5-3.1-19.5-8.1s-8.1-11.9-8.1-19.5v-4.7H25c-6.9 0-13.1-2.8-17.6-7.3-4.6-4.5-7.4-10.7-7.4-17.6v-28.2c0-21.6 8.8-41.3 23.1-55.5 14.2-14.2 33.9-23.1 55.5-23.1H138c10.4 0 20.3 2 29.4 5.7 6.8 2.8 13.2 6.5 18.9 11 10.4-4.2 21.9-6.5 33.9-6.5zm128.7 20c2.8 2.2 5.5 4.6 8 7.1 16.7 16.7 27.1 39.8 27.1 65.1v5.4h103c.3 0 .5-.1.7-.3s.3-.4.3-.7v-28.2c0-15-6.1-28.6-16-38.5s-23.5-16-38.5-16H374c-7.2 0-14.1 1.4-20.4 4-1.6.5-3.1 1.3-4.7 2.1zM128 349.7v-5.4c0-25.4 10.4-48.4 27.1-65.1 2.5-2.5 5.2-4.9 8-7.1-1.5-.8-3.1-1.5-4.7-2.2-6.3-2.6-13.2-4-20.4-4H78.5c-15 0-28.6 6.1-38.5 16s-16 23.5-16 38.5v28.2c0 .3.1.5.3.7s.4.3.7.3h103zm163.8-73.6h-71.6c-18.7 0-35.8 7.7-48.2 20s-20 29.4-20 48.2v34c0 1 .4 1.9 1.1 2.6s1.6 1.1 2.6 1.1h200.7c1 0 1.9-.4 2.6-1.1s1.1-1.6 1.1-2.6v-34c0-18.7-7.7-35.8-20-48.2-12.5-12.3-29.5-20-48.3-20zM256 106c-18.8 0-35.8 7.6-48.2 19.9-12.3 12.3-19.9 29.3-19.9 48.2 0 18.8 7.6 35.8 19.9 48.2 12.3 12.3 29.3 19.9 48.2 19.9 18.8 0 35.8-7.6 48.2-19.9 12.3-12.3 19.9-29.3 19.9-48.2 0-18.8-7.6-35.8-19.9-48.2S274.8 106 256 106zm31.2 36.9c8 8 12.9 19 12.9 31.2s-4.9 23.2-12.9 31.2-19 12.9-31.2 12.9-23.2-4.9-31.2-12.9-12.9-19-12.9-31.2 4.9-23.2 12.9-31.2 19-12.9 31.2-12.9 23.2 4.9 31.2 12.9zm116.5-22.2c16.2 0 30.8 6.6 41.4 17.1 10.6 10.6 17.1 25.2 17.1 41.4s-6.6 30.8-17.1 41.4c-10.6 10.6-25.2 17.1-41.4 17.1s-30.8-6.6-41.4-17.1c-10.6-10.6-17.1-25.2-17.1-41.4s6.6-30.8 17.1-41.4c10.6-10.6 25.3-17.1 41.4-17.1zm24.5 34.1c-6.3-6.3-14.9-10.1-24.4-10.1s-18.2 3.9-24.4 10.1c-6.3 6.3-10.1 14.9-10.1 24.4s3.9 18.2 10.1 24.4c6.3 6.3 14.9 10.1 24.4 10.1s18.2-3.9 24.4-10.1c6.3-6.3 10.1-14.9 10.1-24.4s-3.9-18.1-10.1-24.4zm-295.5 0c-6.3-6.3-14.9-10.1-24.4-10.1s-18.2 3.9-24.4 10.1c-6.3 6.3-10.1 14.9-10.1 24.4s3.9 18.2 10.1 24.4c6.3 6.3 14.9 10.1 24.4 10.1s18.2-3.9 24.4-10.1c6.3-6.3 10.1-14.9 10.1-24.4s-3.9-18.1-10.1-24.4z" clip-rule="evenodd" fill="#ffffff" opacity="1" data-original="#000000" class=""></path></g></svg>