<svg xmlns="http://www.w3.org/2000/svg" version="1.1" xmlns:xlink="http://www.w3.org/1999/xlink" width="512" height="512" x="0" y="0" viewBox="0 0 32 32" style="enable-background:new 0 0 512 512" xml:space="preserve" class=""><g><path d="M23 2H9C5.14 2 2 5.14 2 9v14c0 3.86 3.14 7 7 7h14c3.86 0 7-3.14 7-7V9c0-3.86-3.14-7-7-7zm5 21c0 2.757-2.243 5-5 5H9c-2.757 0-5-2.243-5-5V9c0-2.757 2.243-5 5-5h14c2.757 0 5 2.243 5 5zm-6.47-7.848-8-5A1 1 0 0 0 12 11v10a1 1 0 0 0 1.53.848l8-5a1.001 1.001 0 0 0 0-1.696zM14 19.196v-6.392L19.113 16z" fill="#01df67" opacity="1" data-original="#000000" class=""></path></g></svg>