<svg viewBox="0 0 24 24" xmlns="http://www.w3.org/2000/svg"><g id="Layer_2" data-name="Layer 2"><rect fill="#29b6f6" height="17.5" rx="1.5" width="21.5" x="1.25" y="4.25"/><path d="m22.75 5.75v4h-21.5v-4a1.5 1.5 0 0 1 1.5-1.5h18.5a1.5 1.5 0 0 1 1.5 1.5z" fill="#1565c0"/><path d="m11.5 17.42a.79.79 0 0 1 -.5-.22l-1.78-1.75a.75.75 0 0 1 0-1.06.74.74 0 0 1 1.06 0l1.22 1.22 3-3a.74.74 0 0 1 1.06 0 .75.75 0 0 1 0 1.06l-3.56 3.53a.79.79 0 0 1 -.5.22z" fill="#fff"/><g fill="#1565c0"><path d="m5 5.75a.76.76 0 0 1 -.75-.75v-2a.75.75 0 0 1 1.5 0v2a.76.76 0 0 1 -.75.75z"/><path d="m9.67 5.75a.75.75 0 0 1 -.75-.75v-2a.75.75 0 0 1 1.5 0v2a.76.76 0 0 1 -.75.75z"/><path d="m14.33 5.75a.76.76 0 0 1 -.75-.75v-2a.75.75 0 1 1 1.5 0v2a.75.75 0 0 1 -.75.75z"/><path d="m19 5.75a.76.76 0 0 1 -.75-.75v-2a.75.75 0 0 1 1.5 0v2a.76.76 0 0 1 -.75.75z"/></g></g></svg>